<?xml version="1.0" ?><!DOCTYPE svg  PUBLIC '-//W3C//DTD SVG 1.1//EN'  'http://www.w3.org/Graphics/SVG/1.1/DTD/svg11.dtd'><svg enable-background="new 0 0 256 256" id="Layer_1" version="1.1" viewBox="0 0 256 256" xml:space="preserve" xmlns="http://www.w3.org/2000/svg" xmlns:xlink="http://www.w3.org/1999/xlink"><g><circle cx="128" cy="128" fill="#D5E0E1" r="127"/><path d="M122,72.6c-15.6,1.8-31.3,3.6-46.9,5.5c-0.3,13.8,2.1,27.7,7,40.6c3.2,8.4,7.8,16.7,15.1,22   c7.6,5.5,17.2,7,26.4,8.5c9.4,1.5,19.5,2.8,27.9-1.5c8.9-4.6,13.6-14.3,17.3-23.6c4.1-10.3,7.6-21.1,7.9-32.1   c0.1-5.2-0.7-10.9-4.4-14.5c-2.9-2.9-7.2-4-11.2-4.8c-6-1.1-12.1-1.6-18.2-1.6C135.8,71,128.9,71.8,122,72.6z" fill="#1B1613"/><path d="M93.6,146.3c-0.6-2.2-3.5-3.1-5.7-2.4c-0.9,0.3-1.8,0.9-2.5,1.5l4.5,4.3C90.6,148.1,91.9,146.9,93.6,146.3z   " fill="#2E4555"/><path d="M157.3,146.3c1.3,0.4,2.3,1.3,3.1,2.3l2.3-4.8C160.6,143.3,157.9,144.2,157.3,146.3z" fill="#546F7B"/><path d="M120.6,204.7c5.1,2.2,7.3-0.3,12.8,0.2c3.7,0.4,7.4,0.7,10.9-0.2c2.8-0.7,5.4-2.2,7.8-3.8   c10.1-6.9,17.6-17.5,20.9-29.3c1.8-6.6,1.7-15-4.1-18.6c-2-1.2-4.5-1.7-6.5-2.9c-4-2.4-5.9-7.3-6.4-12c-0.5-4.7,0.1-9.4-0.5-14   c-20-3.7-41.2-0.7-60.2-8c4,14.3-0.5,30.7-11.4,40.8c-1.2,1.1-2.5,2.2-3,3.8c-0.6,1.8,0,3.7,0.7,5.4c3.1,8,8,15.2,14.3,21   c3.6,3.3,7.7,6.1,11.7,8.9C110.7,198.1,117.2,203.2,120.6,204.7z" fill="#D3AA6F"/><path d="M128,255c44.6,0,83.8-23,106.5-57.8c-0.1-0.3-0.2-0.6-0.4-1c-1.8-4.7-3.7-9.5-7.2-13.1   c-3.4-3.4-16-9.1-20.3-11.2c-6.8-3.3-13.3-7.2-19.4-11.5c-2.9-2.1-5.8-4.3-9.2-5.4c-1.6-0.5-3.4-0.8-4.9-1.7   c-0.2-0.1-0.4-0.2-0.5-0.3c3.6,8.8,4.7,18.9,5.6,28.6c0.6,6.2,1.1,12.3,1.7,18.5c-2.4,1.2-5.1-0.2-7.4-1.6   c-4.3-2.6-8.6-5.2-12.9-7.9c-1.4-0.8-2.9-1.7-4.5-1.4c-1.4,0.3-2.5,1.5-3.5,2.6c-4.2,4.5-9.7,7.8-15.6,9.4   c-2.5,0.7-5.1,1.1-7.5,1.8c-0.7,0.2-1.5,0.5-2.2,0.7c-0.3,0.4-0.5,0.8-0.8,1.2c-0.3-0.4-0.5-0.8-0.8-1.2c-0.7-0.3-1.5-0.5-2.2-0.7   c-2.5-0.7-5-1.1-7.5-1.8c-5.9-1.6-11.4-4.9-15.6-9.4c-1-1.1-2.1-2.3-3.5-2.6c-1.6-0.3-3.1,0.6-4.5,1.4c-4.3,2.6-8.6,5.2-12.9,7.9   c-2.2,1.4-5,2.8-7.4,1.6c0.6-6.2,1.1-12.4,1.7-18.5c0.9-9.6,2-19.8,5.6-28.6c-0.2,0.1-0.3,0.2-0.5,0.3c-1.5,0.8-3.3,1.1-4.9,1.7   c-3.4,1.1-6.3,3.3-9.2,5.4c-6.1,4.3-12.6,8.2-19.4,11.5c-4.3,2.1-16.9,7.8-20.3,11.2c-2.5,2.6-4.2,5.7-5.6,9.1   C40.5,229.8,81.3,255,128,255z" fill="#36505F"/><path d="M89.8,173c-1.1-4-1.6-8.2-1.8-12.3c-0.1-1-0.1-2,0-3c-0.1-1.5,0.1-3.1,0.4-4.6c0.3-1.2,0.7-2.3,1.3-3.4   l-4.5-4.3c-1,0.9-1.9,1.9-2.7,3c-1.3,1.7-2.5,3.5-4.3,4.6c-3.6,8.8-4.7,18.9-5.6,28.6c-0.6,6.2-1.1,12.3-1.7,18.5   c2.4,1.2,5.1-0.2,7.4-1.6c4.3-2.6,8.6-5.2,12.9-7.9c1.4-0.8,2.9-1.7,4.5-1.4c0.5,0.1,0.9,0.3,1.3,0.5c-0.7-1.3-1.3-2.6-2-3.9   C93,181.7,91.1,177.5,89.8,173z" fill="#2E4555"/><path d="M178.2,181.6c-0.9-9.6-2-19.8-5.6-28.6c-1.8-1.2-3-2.9-4.3-4.6c-1.4-1.9-3-3.7-5.2-4.5   c-0.1,0-0.2,0-0.3-0.1l-2.3,4.8c1,1.3,1.7,2.9,2,4.5c0,0.1,0,0.2,0,0.2c1.2,1.5,1.9,3.5,2,5.4c0.2,3.5-1.1,6.8-2.4,10   c-1.4,3.5-2.8,7-4.1,10.5c-1.4,3.5-2.8,7-4.2,10.5c0.4-0.3,0.9-0.5,1.4-0.6c1.6-0.3,3.1,0.6,4.5,1.4c4.3,2.6,8.6,5.2,12.9,7.9   c2.2,1.4,5,2.8,7.4,1.6C179.3,193.9,178.7,187.7,178.2,181.6z" fill="#546F7B"/><path d="M162.1,168.8c1.3-3.2,2.6-6.6,2.4-10c-0.1-1.9-0.8-3.9-2-5.4c1,4.8,0,10-2.9,14c-1.9,2.6-4.4,4.7-6.8,6.8   c-10,8.7-18.9,18.7-26.5,29.5c0.7-0.3,1.5-0.5,2.2-0.7c2.5-0.7,5-1.1,7.5-1.8c5.9-1.6,11.4-4.9,15.6-9.4c0.7-0.7,1.3-1.5,2.1-2   c1.4-3.5,2.8-7,4.2-10.5C159.3,175.8,160.7,172.3,162.1,168.8z" fill="#2E4555"/><path d="M130.5,228.1c-0.5-3.9-1.4-7.6-2.3-11.4c-0.7-2.9-1.4-5.7-2-8.6c-0.5-1.9-0.9-3.9-2.1-5.5   c-0.3-0.4-0.7-0.8-1.1-1.2c-7.2-10-15.6-19.1-24.9-27.2c-2.4-2.1-5-4.2-6.8-6.8c-2-2.8-3.1-6.3-3.2-9.7c-0.1,1-0.1,2,0,3   c0.2,4.1,0.7,8.3,1.8,12.3c1.2,4.5,3.2,8.7,5.2,12.9c0.6,1.3,1.3,2.6,2,3.9c0.8,0.5,1.5,1.3,2.2,2c2.6,2.8,5.7,5.1,9.1,6.9   c0,0.1-0.1,0.2-0.1,0.3c0,0.4,0.4,0.7,0.7,1c4.8,3.6,8.6,8.3,12.4,12.9c0.9,1,1.7,2.1,2.4,3.3c0.9,1.6,1.4,3.4,1.9,5.2   c1.7,5.9,3.3,11.8,5,17.7C131.1,235.3,131,231.7,130.5,228.1z" fill="#546F7B"/><g><g><g><ellipse cx="84.7" cy="96.7" fill="#D3AA6F" rx="6" ry="17.9" transform="matrix(0.979 -0.2038 0.2038 0.979 -17.926 19.3054)"/></g><g><ellipse cx="169.2" cy="96.7" fill="#D3AA6F" rx="6" ry="17.9" transform="matrix(-0.979 -0.2038 0.2038 -0.979 315.162 225.7999)"/></g></g></g><ellipse cx="127" cy="90.3" fill="#EEC98F" rx="42.3" ry="66"/><path d="M94.5,20.8c4.1-2.7,8.9-4.4,13.6-6.1c5.7-2,11.6-4.1,17.7-4.1c8.3,0,16.1,3.9,23.5,7.8   c1.4,0.7,2.9,1.5,3.9,2.8c1.4,1.7,1.7,4,1.8,6.2c0.2,3.8,0.2,7.7-1.1,11.3c-2.9,8.2-11.3,13.2-19.8,15.3   c-8.4,2.1-17.3,2.1-25.8,3.9c-3.3,0.7-6.6,1.7-9.5,3.4c-10.4,6.1-13.7,20.1-11.3,31.9c0.5,2.3,0.2,5.8-2.2,5.6   c0.5-3.3-1.9-6.8-5.2-7.5c-1.2-0.2-2.4-0.1-3.4-0.8c-1.1-0.7-1.5-2.1-1.8-3.3c-2.3-9.8-2.2-20.1-2.1-30.2c0-3.4,0.1-6.9,1.1-10.2   c1.1-3.3,3.1-6.2,5.1-9.1C83.6,31.5,88.1,25,94.5,20.8z" fill="#1B1613"/><path d="M177.8,69.1c0.4-9.1,0.9-18.4-1.3-27.2c-1.2-5-3.3-9.8-6.8-13.6c-3.5-3.8-8.5-6.3-13.6-6   c-0.5,0-1.1,0.1-1.5,0.4c-0.5,0.4-0.8,1-1,1.6c-2.4,6.7-4.4,13.5-6,20.4c-0.3,1.5-0.7,3-0.5,4.5c0.3,3.5,2.9,6.4,5.6,8.6   c2.7,2.2,5.8,4.2,7.7,7.2c1.6,2.5,2.2,5.4,2.7,8.3c1.2,6.6,2,13.4,2.3,20.1c0.1,1.8,1,4.3,2.7,3.9c-1.1-2.6,0.6-5.5,2.7-7.5   c2-1.9,4.6-3.6,5.7-6.2c0.6-1.4,0.7-3,0.8-4.6C177.4,75.7,177.6,72.4,177.8,69.1z" fill="#1B1613"/></g></svg>