<?xml version="1.0" ?><!DOCTYPE svg  PUBLIC '-//W3C//DTD SVG 1.1//EN'  'http://www.w3.org/Graphics/SVG/1.1/DTD/svg11.dtd'><svg enable-background="new 0 0 256 256" id="Layer_1" version="1.1" viewBox="0 0 256 256" xml:space="preserve" xmlns="http://www.w3.org/2000/svg" xmlns:xlink="http://www.w3.org/1999/xlink"><g><circle cx="128" cy="128" fill="#FFD479" r="127"/><path d="M218,217.6l-3.6-18.4c-1.6-8-6.7-14.8-14-18.5l-48.5-24.8l-22-3l0-0.5l-1.9,0.3l-1.9-0.3l0,0.5l-22,3   l-48.5,24.8c-7.2,3.7-12.4,10.5-14,18.5L38,217.6c23,23.1,54.8,37.4,90,37.4S195,240.7,218,217.6z" fill="#E55336"/><ellipse cx="128" cy="177" fill="#BF4028" rx="33.7" ry="37.5"/><g><path d="M115.9,55.4c-0.8-1.3-1.9-2.7-3.4-2.8c-0.8-0.1-1.5,0.2-2.3,0.5c-11.5,4.7-23.9,11.1-28,22.8    c-1.7,4.8-1.7,10.1-1.8,15.2c-0.1,10.4-0.1,20.8-0.2,31.3c0,4.4-0.5,9.7-4.5,11.7c-3.9,2-9.4-1.7-8.9-6.1    c-5.2,1.2-7.5,7.3-7.9,12.6c-0.4,5.6,0.3,11.3,3,16.2c4.1,7.4,12.5,11.7,21,12.8s17-0.7,25.1-3c6.2-1.8,12.8-4.1,16.7-9.3    c4.7-6.2,4.3-14.7,3.8-22.4c-1.2-17.2-2.4-34.5-3.6-51.7c-0.4-5.2-0.7-10.4-2.4-15.3C121.1,63.4,118.5,59.4,115.9,55.4z" fill="#341911"/><path d="M139.6,55.4c0.8-1.3,1.9-2.7,3.4-2.8c0.8-0.1,1.5,0.2,2.3,0.5c11.5,4.7,23.9,11.1,28,22.8    c1.7,4.8,1.7,10.1,1.8,15.2c0.1,10.4,0.1,20.8,0.2,31.3c0,4.4,0.5,9.7,4.5,11.7c3.9,2,9.4-1.7,8.9-6.1c5.2,1.2,7.5,7.3,7.9,12.6    c0.4,5.6-0.3,11.3-3,16.2c-4.1,7.4-12.5,11.7-21,12.8c-8.4,1.1-17-0.7-25.1-3c-6.2-1.8-12.8-4.1-16.7-9.3    c-4.7-6.2-4.3-14.7-3.8-22.4c1.2-17.2,2.4-34.5,3.6-51.7c0.4-5.2,0.7-10.4,2.4-15.3C134.3,63.4,137,59.4,139.6,55.4z" fill="#341911"/></g><path d="M146.5,135.3H109c-2.8,0-5,2.2-5,5v22.4c0,13.1,10.6,23.8,23.8,23.8h0c13.1,0,23.8-10.6,23.8-23.8v-22.4   C151.5,137.6,149.2,135.3,146.5,135.3z" fill="#E69B81"/><ellipse cx="127.7" cy="107" fill="#F7BA9F" rx="40.7" ry="48.8"/><path d="M147.8,64.7c1,6.4,0.6,7.9,4,13.4c3.4,5.5,7.8,10.4,11.6,15.6c3.8,5.3,7.1,11.2,7.6,17.7   c2.3-10.3,4.5-20.8,4.5-31.4c0-10.6-2.5-21.5-9-29.9c-2.9-3.7-6.9-7.1-11.6-7.1c-0.5,0-1.1,0-1.6-0.2c-0.4-0.2-0.8-0.6-1.1-1   c-4.2-5.3-11.4-6.9-18.1-7.8c-4-0.6-8.1-1-12.1-0.6c-7.5,0.7-14.4,4.3-20.1,9.2c-5.6,4.9-10,11.1-13.7,17.7c-1.6,2.8-3,5.6-4.1,8.6   c-5,13.2-3.3,27.7-3.4,41.8C83,101,92,93.3,101.9,92.5c3.2-0.3,6.5,0.1,9.7-0.4c1.8-0.3,3.6-0.9,5.3-1.5   c6.4-2.4,12.7-5.9,16.7-11.4c-4,6.5-9.5,12.1-16.1,16c7.2-2.4,14.3-5.7,19.9-10.8C143.1,79.3,147.3,72.3,147.8,64.7" fill="#4F2A14"/><g><path d="M166,93.2h-25.7h-11.9h-3.4h-11.9H87.6c-1.3,0-2.4,1.1-2.4,2.4v19.7c0,1.3,1.1,2.4,2.4,2.4H117    c1,0,1.8-0.6,2.2-1.5l4-9.6c0.6-1.5,2-2.4,3.6-2.4c1.6,0,3,1,3.6,2.4l4,9.6c0.4,0.9,1.2,1.5,2.2,1.5H166c1.3,0,2.4-1.1,2.4-2.4    V95.6C168.4,94.3,167.3,93.2,166,93.2z" fill="#EDF2F1"/><g><path d="M108.6,97.2H95.9c-3,0-5.4,2.4-5.4,5.4v5.1c0,3,2.4,5.4,5.4,5.4h12.7c3,0,5.4-2.4,5.4-5.4v-5.1     C114,99.6,111.5,97.2,108.6,97.2z" fill="#3DA8D6"/><path d="M157.7,97.2H145c-3,0-5.4,2.4-5.4,5.4v5.1c0,3,2.4,5.4,5.4,5.4h12.7c3,0,5.4-2.4,5.4-5.4v-5.1     C163.1,99.6,160.7,97.2,157.7,97.2z" fill="#3DA8D6"/></g></g></g></svg>